<svg xmlns="http://www.w3.org/2000/svg" width="640" height="360" viewBox="0 0 640 360" role="img" aria-label="Front end automation preview">
  <defs>
    <linearGradient id="fe-bg" x1="0" y1="0" x2="640" y2="360" gradientUnits="userSpaceOnUse">
      <stop stop-color="#eef2ff"/>
      <stop offset="1" stop-color="#f5f3ff"/>
    </linearGradient>
    <linearGradient id="fe-bar" x1="0" y1="0" x2="1" y2="0">
      <stop stop-color="#6366f1"/>
      <stop offset="1" stop-color="#8b5cf6"/>
    </linearGradient>
  </defs>
  <rect width="640" height="360" fill="url(#fe-bg)"/>
  <rect x="32" y="32" width="576" height="56" rx="8" fill="#4f46e5"/>
  <text x="320" y="68" text-anchor="middle" fill="#ffffff" font-family="system-ui,sans-serif" font-size="17" font-weight="600">Front end automation example</text>
  <rect x="80" y="108" width="480" height="220" rx="12" fill="#ffffff" stroke="#a5b4fc" stroke-width="2"/>
  <rect x="100" y="128" width="440" height="32" rx="8" fill="#eef2ff"/>
  <circle cx="124" cy="144" r="7" fill="#f87171"/>
  <circle cx="146" cy="144" r="7" fill="#fbbf24"/>
  <circle cx="168" cy="144" r="7" fill="#4ade80"/>
  <rect x="120" y="180" width="160" height="14" rx="4" fill="url(#fe-bar)"/>
  <rect x="120" y="206" width="360" height="10" rx="3" fill="#bfdbfe"/>
  <rect x="120" y="226" width="300" height="10" rx="3" fill="#ddd6fe"/>
  <rect x="120" y="246" width="220" height="10" rx="3" fill="#c7d2fe"/>
  <rect x="120" y="276" width="120" height="28" rx="6" fill="#dcfce7" stroke="#4ade80" stroke-width="1.5"/>
  <rect x="132" y="288" width="72" height="6" rx="2" fill="#22c55e"/>
  <text x="320" y="332" text-anchor="middle" fill="#6366f1" font-family="system-ui,sans-serif" font-size="13" font-weight="600" letter-spacing="0.08em">PYTEST · PLAYWRIGHT</text>
</svg>
